# xmcd
#
# Track frame offsets:
#	150
#	13534
#	25265
#	43628
#	54924
#	65503
#	78460
#	93769
#	106303
#	118043
#	132088
#
# Disc length: 1997 seconds
#
# Revision: 0
# Processed by: cddbd v1.5.2PL0 Copyright (c) Steve Scherf et al.
# Submitted via: EZCDAudioConverter 3.1.7.1
#
DISCID=8207cb0b
DTITLE=Robert Allen Mycko - You're My American Hero
DYEAR=2006
DGENRE=Country
TTITLE0=What's Mine Is Mine
TTITLE1=My Heart Aches All Day Long
TTITLE2=You're My American Hero
TTITLE3=Dangerous Girl
TTITLE4=Time To Add An Ex To My Wife
TTITLE5=When I Start Drinkin' I Get Drunk
TTITLE6=Cheatin' Town USA
TTITLE7=Don't Blame It On Him
TTITLE8=I Just Got To Be With You
TTITLE9=Daddy Sings Me Songs
TTITLE10=You're My American Hero (Radio Edit Version)
EXTD=
EXTT0=
EXTT1=
EXTT2=
EXTT3=
EXTT4=
EXTT5=
EXTT6=
EXTT7=
EXTT8=
EXTT9=
EXTT10=
PLAYORDER=
